<?xml version="1.0" encoding="utf-8"?>
<?xml-stylesheet type="text/xsl" href="rss1.xsl"?>
<rss version="2.0" xmlns:atom="http://www.w3.org/2005/Atom" xmlns:content="http://purl.org/rss/1.0/modules/content/" xmlns:dc="http://purl.org/dc/elements/1.1/" xmlns:media="http://search.yahoo.com/mrss/">
<channel>
 <title>Getty</title>
 <link>http://www.gettyimg.com/</link>
 <atom:link href="http://www.gettyimg.com/" rel="self" type="application/rss+xml" />

 
                <item>
                <title><![CDATA[【Apple Music】WEB-RiP - Sarius, BARANOVSKI, Jakub Józef Orliński, Sir Mich - Nigdy Sam [Pepsi Taste The Beat] (1080p)]]></title>
                <link><![CDATA[https://sharemania.us/threads/sarius-baranovski-jakub-j%C3%B3zef-orli%C5%84ski-sir-mich-nigdy-sam-pepsi-taste-the-beat-1080p.249468/]]></link>
                <description><![CDATA[<article>
<blockquote class="messageText SelectQuoteContainer ugc baseHtml">
<img src="https://i.postimg.cc/t4B6L6ZH/Sarius-BARANOVSKI-Jakub-J-zef-Orli-ski-Sir-Mich-Nigdy-Sam-Pepsi-Taste-The-Beat-mp4.jpg" class="bbCodeImage LbImage" alt="[​IMG]" data-url="https://i.postimg.cc/t4B6L6ZH/Sarius-BARANOVSKI-Jakub-J-zef-Orli-ski-Sir-Mich-Nigdy-Sam-Pepsi-Taste-The-Beat-mp4.jpg" style=""><br>
<br>
<div class="bbCodeBlock bbCodeCode">
<div class="type">Code:</div>
<pre>General
Complete name                  : G:\Новая папка\Sarius, BARANOVSKI, Jakub Józef Orliński, Sir Mich - Nigdy Sam [Pepsi Taste The Beat].mp4
Format                         : MPEG-4
Format profile                 : Base Media
Codec ID                       : isom (isom/iso2/avc1/mp41)
File size                      : 270 MiB
Duration                       : 3 min 40 s
Overall bit rate               : 10.3 Mb/s
Frame rate                     : 25.000 FPS
Movie name                     : Nigdy Sam (Taste The Beat)
Performer                      : Sarius, BARANOVSKI, Jakub Józef Orliński &amp; Sir Mich
Genre                          : Pop
ContentType                    : Music Video
Recorded date                  : 2020-08-14 07:00:00 UTC
Writing application            : Lavf56.30.100
Copyright                      : ℗ 2020 Warner Music Poland

Video
ID                             : 1
Format                         : AVC
Format/Info                    : Advanced Video Codec
Format profile                 : High@L4
Format settings                : CABAC / 4 Ref Frames
Format settings, CABAC         : Yes
Format settings, Reference fra : 4 frames
Format settings, Slice count   : 8 slices per frame
Codec ID                       : avc1
Codec ID/Info                  : Advanced Video Coding
Duration                       : 3 min 40 s
Bit rate                       : 10.0 Mb/s
Width                          : 1 920 pixels
Height                         : 868 pixels
Display aspect ratio           : 2.2:1
Frame rate mode                : Constant
Frame rate                     : 25.000 FPS
Color space                    : YUV
Chroma subsampling             : 4:2:0
Bit depth                      : 8 bits
Scan type                      : Progressive
Bits/(Pixel*Frame)             : 0.240
Stream size                    : 263 MiB (97%)
Color range                    : Limited
Color primaries                : BT.709
Transfer characteristics       : BT.709
Matrix coefficients            : BT.709
Codec configuration box        : avcC

Audio
ID                             : 2
Format                         : AAC LC
Format/Info                    : Advanced Audio Codec Low Complexity
Codec ID                       : mp4a-40-2
Duration                       : 3 min 40 s
Duration_LastFrame             : -9 ms
Bit rate mode                  : Constant
Bit rate                       : 252 kb/s
Channel(s)                     : 2 channels
Channel layout                 : L R
Sampling rate                  : 48.0 kHz
Frame rate                     : 46.875 FPS (1024 SPF)
Compression mode               : Lossy
Stream size                    : 6.62 MiB (2%)
Default                        : Yes
Alternate group                : 1

</pre>
</div>
<div class="bbCodeBlock bbCodeVfcHH HiddenContent">
<div class="attribution type">Hidden Content:</div>
<blockquote>You must either reply or click 'Like' to see the hidden information contained here.</blockquote>
</div>
<div class="messageTextEndMarker">&nbsp;</div>
</blockquote>
</article>]]></description>
                <author><![CDATA[vitalya3]]></author>
                </item>

                
                <item>
                <title><![CDATA[【Apple Music】WEB-RiP - VIZE &amp; Anna Grey - Way Back Home (1080p)]]></title>
                <link><![CDATA[https://sharemania.us/threads/vize-anna-grey-way-back-home-1080p.249466/]]></link>
                <description><![CDATA[<article>
<blockquote class="messageText SelectQuoteContainer ugc baseHtml">
<img src="https://i.postimg.cc/ryfrPWvC/VIZE-Anna-Grey-Way-Back-Home-mp4.jpg" class="bbCodeImage LbImage" alt="[​IMG]" data-url="https://i.postimg.cc/ryfrPWvC/VIZE-Anna-Grey-Way-Back-Home-mp4.jpg" style=""><br>
<br>
<div class="bbCodeBlock bbCodeCode">
<div class="type">Code:</div>
<pre>General
Complete name                  : G:\Новая папка\VIZE &amp; Anna Grey - Way Back Home.mp4
Format                         : MPEG-4
Format profile                 : Base Media
Codec ID                       : isom (isom/iso2/avc1/mp41)
File size                      : 222 MiB
Duration                       : 2 min 58 s
Overall bit rate               : 10.4 Mb/s
Frame rate                     : 25.000 FPS
Movie name                     : Way Back Home
Performer                      : VIZE &amp; Anna Grey
Genre                          : Dance
ContentType                    : Music Video
Recorded date                  : 2021-09-24 07:00:00 UTC
Writing application            : Lavf56.30.100
Copyright                      : ℗ (C) 2021 VIZE under exclusive license to Epic Records Germany - a division of Sony Music Entertainment Germany GmbH

Video
ID                             : 1
Format                         : AVC
Format/Info                    : Advanced Video Codec
Format profile                 : High@L4
Format settings                : CABAC / 5 Ref Frames
Format settings, CABAC         : Yes
Format settings, Reference fra : 5 frames
Format settings, Slice count   : 8 slices per frame
Codec ID                       : avc1
Codec ID/Info                  : Advanced Video Coding
Duration                       : 2 min 58 s
Bit rate                       : 10.2 Mb/s
Width                          : 1 920 pixels
Height                         : 816 pixels
Display aspect ratio           : 2.35:1
Frame rate mode                : Constant
Frame rate                     : 25.000 FPS
Color space                    : YUV
Chroma subsampling             : 4:2:0
Bit depth                      : 8 bits
Scan type                      : Progressive
Bits/(Pixel*Frame)             : 0.260
Stream size                    : 217 MiB (97%)
Color range                    : Limited
Color primaries                : BT.709
Transfer characteristics       : BT.709
Matrix coefficients            : BT.709
Codec configuration box        : avcC

Audio
ID                             : 2
Format                         : AAC LC
Format/Info                    : Advanced Audio Codec Low Complexity
Codec ID                       : mp4a-40-2
Duration                       : 2 min 58 s
Duration_LastFrame             : -12 ms
Bit rate mode                  : Constant
Bit rate                       : 265 kb/s
Channel(s)                     : 2 channels
Channel layout                 : L R
Sampling rate                  : 48.0 kHz
Frame rate                     : 46.875 FPS (1024 SPF)
Compression mode               : Lossy
Stream size                    : 5.57 MiB (3%)
Default                        : Yes
Alternate group                : 1

</pre>
</div>
<div class="bbCodeBlock bbCodeVfcHH HiddenContent">
<div class="attribution type">Hidden Content:</div>
<blockquote>You must either reply or click 'Like' to see the hidden information contained here.</blockquote>
</div>
<div class="messageTextEndMarker">&nbsp;</div>
</blockquote>
</article>]]></description>
                <author><![CDATA[vitalya3]]></author>
                </item>

                
                <item>
                <title><![CDATA[【Apple Music】WEB-RiP - VIZE - Livin' Loud (by glo™) [feat. ILIRA] (1080p)]]></title>
                <link><![CDATA[https://sharemania.us/threads/vize-livin-loud-by-glo%E2%84%A2-feat-ilira-1080p.249469/]]></link>
                <description><![CDATA[<article>
<blockquote class="messageText SelectQuoteContainer ugc baseHtml">
<img src="https://i.postimg.cc/90PbTfxF/VIZE-Livin-Loud-by-glo-feat-ILIRA-mp4.jpg" class="bbCodeImage LbImage" alt="[​IMG]" data-url="https://i.postimg.cc/90PbTfxF/VIZE-Livin-Loud-by-glo-feat-ILIRA-mp4.jpg" style=""><br>
<br>
<div class="bbCodeBlock bbCodeCode">
<div class="type">Code:</div>
<pre>General
Complete name                  : G:\Новая папка\VIZE - Livin' Loud (by glo™) [feat. ILIRA].mp4
Format                         : MPEG-4
Format profile                 : Base Media
Codec ID                       : isom (isom/iso2/avc1/mp41)
File size                      : 161 MiB
Duration                       : 3 min 18 s
Overall bit rate               : 6 773 kb/s
Frame rate                     : 25.000 FPS
Movie name                     : Livin' Loud (by glo™) [feat. ILIRA]
Performer                      : VIZE
Genre                          : Dance
ContentType                    : Music Video
Recorded date                  : 2021-11-05 07:00:00 UTC
Writing application            : Lavf56.30.100
Copyright                      : ℗ (C) 2021 VIZE / Crash Your Sound under exclusive license to Epic Records Germany -  a division of Sony Music Entertaiment Germany GmbH

Video
ID                             : 1
Format                         : AVC
Format/Info                    : Advanced Video Codec
Format profile                 : High@L4
Format settings                : CABAC / 5 Ref Frames
Format settings, CABAC         : Yes
Format settings, Reference fra : 5 frames
Format settings, Slice count   : 8 slices per frame
Codec ID                       : avc1
Codec ID/Info                  : Advanced Video Coding
Duration                       : 3 min 18 s
Bit rate                       : 6 506 kb/s
Width                          : 1 920 pixels
Height                         : 736 pixels
Display aspect ratio           : 2.609
Frame rate mode                : Constant
Frame rate                     : 25.000 FPS
Color space                    : YUV
Chroma subsampling             : 4:2:0
Bit depth                      : 8 bits
Scan type                      : Progressive
Bits/(Pixel*Frame)             : 0.184
Stream size                    : 154 MiB (96%)
Color range                    : Limited
Color primaries                : BT.709
Transfer characteristics       : BT.709
Matrix coefficients            : BT.709
Codec configuration box        : avcC

Audio
ID                             : 2
Format                         : AAC LC
Format/Info                    : Advanced Audio Codec Low Complexity
Codec ID                       : mp4a-40-2
Duration                       : 3 min 18 s
Duration_LastFrame             : -12 ms
Bit rate mode                  : Constant
Bit rate                       : 265 kb/s
Channel(s)                     : 2 channels
Channel layout                 : L R
Sampling rate                  : 48.0 kHz
Frame rate                     : 46.875 FPS (1024 SPF)
Compression mode               : Lossy
Stream size                    : 6.22 MiB (4%)
Default                        : Yes
Alternate group                : 1

</pre>
</div>
<div class="bbCodeBlock bbCodeVfcHH HiddenContent">
<div class="attribution type">Hidden Content:</div>
<blockquote>You must either reply or click 'Like' to see the hidden information contained here.</blockquote>
</div>
<div class="messageTextEndMarker">&nbsp;</div>
</blockquote>
</article>]]></description>
                <author><![CDATA[vitalya3]]></author>
                </item>

                
                <item>
                <title><![CDATA[【Apple Music】WEB-RiP - Remady &amp; Manu-L - L.I.F.E. (1080p)]]></title>
                <link><![CDATA[https://sharemania.us/threads/remady-manu-l-l-i-f-e-1080p.249471/]]></link>
                <description><![CDATA[<article>
<blockquote class="messageText SelectQuoteContainer ugc baseHtml">
<img src="https://i.postimg.cc/ydxHYkT9/Remady-Manu-L-L-I-F-E-mp4.jpg" class="bbCodeImage LbImage" alt="[​IMG]" data-url="https://i.postimg.cc/ydxHYkT9/Remady-Manu-L-L-I-F-E-mp4.jpg" style=""><br>
<br>
<div class="bbCodeBlock bbCodeCode">
<div class="type">Code:</div>
<pre>General
Complete name                  : G:\Новая папка\Remady &amp; Manu-L - L.I.F.E..mp4
Format                         : MPEG-4
Format profile                 : Base Media
Codec ID                       : isom (isom/iso2/avc1/mp41)
File size                      : 214 MiB
Duration                       : 3 min 0 s
Overall bit rate               : 9 950 kb/s
Frame rate                     : 25.000 FPS
Movie name                     : L.I.F.E.
Performer                      : Remady &amp; Manu-L
Genre                          : Dance
ContentType                    : Music Video
Recorded date                  : 2016-11-04 07:00:00 UTC
Writing application            : Lavf56.30.100
Copyright                      : ℗ (C) 2016 Sony Music Entertainment Switzerland GmbH

Video
ID                             : 1
Format                         : AVC
Format/Info                    : Advanced Video Codec
Format profile                 : High@L4
Format settings                : CABAC / 5 Ref Frames
Format settings, CABAC         : Yes
Format settings, Reference fra : 5 frames
Format settings, Slice count   : 8 slices per frame
Codec ID                       : avc1
Codec ID/Info                  : Advanced Video Coding
Duration                       : 3 min 0 s
Bit rate                       : 9 690 kb/s
Width                          : 1 916 pixels
Height                         : 810 pixels
Display aspect ratio           : 2.35:1
Frame rate mode                : Constant
Frame rate                     : 25.000 FPS
Color space                    : YUV
Chroma subsampling             : 4:2:0
Bit depth                      : 8 bits
Scan type                      : Progressive
Bits/(Pixel*Frame)             : 0.250
Stream size                    : 208 MiB (97%)
Color range                    : Limited
Color primaries                : BT.709
Transfer characteristics       : BT.709
Matrix coefficients            : BT.709
Codec configuration box        : avcC

Audio
ID                             : 2
Format                         : AAC LC
Format/Info                    : Advanced Audio Codec Low Complexity
Codec ID                       : mp4a-40-2
Duration                       : 3 min 0 s
Duration_LastFrame             : -20 ms
Bit rate mode                  : Constant
Bit rate                       : 256 kb/s
Channel(s)                     : 2 channels
Channel layout                 : L R
Sampling rate                  : 48.0 kHz
Frame rate                     : 46.875 FPS (1024 SPF)
Compression mode               : Lossy
Stream size                    : 5.51 MiB (3%)
Default                        : Yes
Alternate group                : 1

</pre>
</div>
<div class="bbCodeBlock bbCodeVfcHH HiddenContent">
<div class="attribution type">Hidden Content:</div>
<blockquote>You must either reply or click 'Like' to see the hidden information contained here.</blockquote>
</div>
<div class="messageTextEndMarker">&nbsp;</div>
</blockquote>
</article>]]></description>
                <author><![CDATA[vitalya3]]></author>
                </item>

                
                <item>
                <title><![CDATA[【Live Audios (lossy)】MP3 - Imagine Dragons Live Chambord]]></title>
                <link><![CDATA[https://sharemania.us/threads/imagine-dragons-live-chambord.249467/]]></link>
                <description><![CDATA[<article>
<blockquote class="messageText SelectQuoteContainer ugc baseHtml">
Imagine Dragons Live Chambord MP3<br>
<br>
<br>
<a href="https://1fichier.com/?a21pvymactyz3ldfqd5v" target="_blank" class="externalLink" rel="nofollow">https://1fichier.com/?a21pvymactyz3ldfqd5v</a>
<div class="messageTextEndMarker">&nbsp;</div>
</blockquote>
</article>]]></description>
                <author><![CDATA[arnaud068]]></author>
                </item>

                
                <item>
                <title><![CDATA[【Apple Music】WEB-RiP - Stachursky - Polska Krew (1080p)]]></title>
                <link><![CDATA[https://sharemania.us/threads/stachursky-polska-krew-1080p.249470/]]></link>
                <description><![CDATA[<article>
<blockquote class="messageText SelectQuoteContainer ugc baseHtml">
<img src="https://i.postimg.cc/x1BjZGG7/Stachursky-Polska-Krew-mp4.jpg" class="bbCodeImage LbImage" alt="[​IMG]" data-url="https://i.postimg.cc/x1BjZGG7/Stachursky-Polska-Krew-mp4.jpg" style=""><br>
<br>
<div class="bbCodeBlock bbCodeCode">
<div class="type">Code:</div>
<pre>General
Complete name                  : G:\Новая папка\Stachursky - Polska Krew.mp4
Format                         : MPEG-4
Format profile                 : Base Media
Codec ID                       : isom (isom/iso2/avc1/mp41)
File size                      : 154 MiB
Duration                       : 3 min 13 s
Overall bit rate               : 6 686 kb/s
Frame rate                     : 25.000 FPS
Movie name                     : Polska Krew
Performer                      : Stachursky
Genre                          : Dance
ContentType                    : Music Video
Recorded date                  : 2020-10-16 07:00:00 UTC
Writing application            : Lavf56.30.100
Copyright                      : ℗ 2020 Stachursky Production

Video
ID                             : 1
Format                         : AVC
Format/Info                    : Advanced Video Codec
Format profile                 : High@L4
Format settings                : CABAC / 4 Ref Frames
Format settings, CABAC         : Yes
Format settings, Reference fra : 4 frames
Format settings, Slice count   : 8 slices per frame
Codec ID                       : avc1
Codec ID/Info                  : Advanced Video Coding
Duration                       : 3 min 13 s
Bit rate                       : 6 424 kb/s
Width                          : 1 912 pixels
Height                         : 1 072 pixels
Display aspect ratio           : 16:9
Frame rate mode                : Constant
Frame rate                     : 25.000 FPS
Color space                    : YUV
Chroma subsampling             : 4:2:0
Bit depth                      : 8 bits
Scan type                      : Progressive
Bits/(Pixel*Frame)             : 0.125
Stream size                    : 148 MiB (96%)
Color range                    : Limited
Color primaries                : BT.709
Transfer characteristics       : BT.709
Matrix coefficients            : BT.709
Codec configuration box        : avcC

Audio
ID                             : 2
Format                         : AAC LC
Format/Info                    : Advanced Audio Codec Low Complexity
Codec ID                       : mp4a-40-2
Duration                       : 3 min 13 s
Duration_LastFrame             : -12 ms
Bit rate mode                  : Constant
Bit rate                       : 258 kb/s
Channel(s)                     : 2 channels
Channel layout                 : L R
Sampling rate                  : 48.0 kHz
Frame rate                     : 46.875 FPS (1024 SPF)
Compression mode               : Lossy
Stream size                    : 5.94 MiB (4%)
Default                        : Yes
Alternate group                : 1

</pre>
</div>
<div class="bbCodeBlock bbCodeVfcHH HiddenContent">
<div class="attribution type">Hidden Content:</div>
<blockquote>You must either reply or click 'Like' to see the hidden information contained here.</blockquote>
</div>
<div class="messageTextEndMarker">&nbsp;</div>
</blockquote>
</article>]]></description>
                <author><![CDATA[vitalya3]]></author>
                </item>

                </channel></rss>